<svg width="36" height="36" viewBox="0 0 36 36" fill="none" xmlns="http://www.w3.org/2000/svg">
<circle cx="18" cy="18" r="17.5119" fill="white" stroke="black" stroke-width="0.976202"/>
<path fill-rule="evenodd" clip-rule="evenodd" d="M8 15.7814C8 12.515 10.7076 10 13.8857 10C15.524 10 16.9655 11.2558 18 12.3077C19.0345 11.2558 20.476 10 22.1143 10C25.2925 10 28 12.515 28 15.7814C28 18.0189 27.0984 19.9865 25.8494 21.6498C24.6024 23.3102 22.9714 24.7194 21.4097 25.8644C20.8131 26.3018 20.2097 26.7052 19.6575 27.0029C19.1389 27.2824 18.5425 28 18 28C17.4575 28 16.8611 27.2824 16.3425 27.0029C15.7903 26.7052 15.1868 26.3018 14.5903 25.8644C13.0286 24.7194 11.3976 23.3102 10.1507 21.6498C8.90158 19.9865 8 18.0189 8 15.7814ZM13.8857 11.3846C11.5094 11.3846 9.28765 13.6638 9.28765 15.7814C9.28765 17.479 9.90251 19.154 11 20.6154C12.0996 22.0797 13.5053 23.6733 15 24.7692C15.5656 25.1839 16.0442 25.4785 16.5 25.7241C16.9893 25.9878 17.8934 26.6154 18 26.6154C18.1066 26.6154 19.0107 25.956 19.5 25.6923C19.9558 25.4466 20.4344 25.1839 21 24.7692C22.4946 23.6733 23.9003 22.0797 25 20.6154C26.0975 19.154 26.777 17.479 26.777 15.7814C26.777 13.6638 24.4905 11.2746 22.1143 11.2746C20.7495 11.2746 19.4752 12.6772 18.6795 13.7725C18.5173 13.9958 18.2662 14.6154 18 14.6154C17.7338 14.6154 17.4827 13.9958 17.3205 13.7725C16.5248 12.6772 15.2505 11.3846 13.8857 11.3846Z" fill="black"/>
<path fill-rule="evenodd" clip-rule="evenodd" d="M9 16.139C9 14.2668 10.0133 12.3965 11.5 11.5C12.3188 11.0063 13.2813 11 14.2971 11C15.7716 11 17.0689 12.5649 18 13.5C18.9311 12.5649 20.2284 11 21.7029 11C22.963 11 24.0764 11.2663 25 12C26.1729 12.9318 27 14.5147 27 16.139C27 18.128 26.1886 19.8769 25.0644 21.3554C23.9422 22.8313 22.4743 24.0839 21.0687 25.1017C20.5318 25.4905 19.9887 25.8491 19.4917 26.1137C19.025 26.3621 18.4883 27 18 27C17.5117 27 16.975 26.3621 16.5083 26.1137C16.0113 25.8491 15.4681 25.4905 14.9313 25.1017C13.5258 24.0839 12.0578 22.8313 10.9356 21.3554C9.81142 19.8769 9 18.128 9 16.139Z" fill="#F3733C"/>
</svg>
