<svg width="21" height="24" viewBox="0 0 21 24" fill="none" xmlns="http://www.w3.org/2000/svg">
<path d="M11.827 15.2834C11.0941 15.2834 10.5 15.8658 10.5 16.5842C10.5 17.3025 11.0941 17.8849 11.827 17.8849C12.5599 17.8849 13.1539 17.3025 13.1539 16.5842C13.1539 15.8658 12.5599 15.2834 11.827 15.2834Z" fill="black"/>
<path d="M7.84608 17.8849C7.11321 17.8849 6.51912 18.4672 6.51912 19.1856C6.51912 19.904 7.11321 20.4863 7.84608 20.4863C8.57897 20.4863 9.17305 19.904 9.17305 19.1856C9.17305 18.4672 8.57897 17.8849 7.84608 17.8849Z" fill="black"/>
<path fill-rule="evenodd" clip-rule="evenodd" d="M13.8084 1.30248e-05L13.8044 0H7.1956L7.19168 1.30248e-05H5.85564C5.30599 1.30248e-05 4.86041 0.436768 4.86041 0.975551C4.86041 1.51432 5.30599 1.95109 5.85564 1.95109H6.20038V8.56784C6.20038 10.4596 5.61995 12.3075 4.53451 13.8718L0.429164 19.7877C-0.613365 21.29 0.347662 23.3401 2.18963 23.5433C7.71246 24.1522 13.2876 24.1522 18.8104 23.5433C20.6523 23.3401 21.6133 21.29 20.5709 19.7877L16.4655 13.8718C15.3801 12.3075 14.7996 10.4596 14.7996 8.56784V1.95109H15.1444C15.694 1.95109 16.1396 1.51432 16.1396 0.975551C16.1396 0.436768 15.694 1.30248e-05 15.1444 1.30248e-05H13.8084ZM2.41215 21.6044C7.7871 22.1971 13.2129 22.1971 18.5879 21.6044C18.9407 21.5655 19.1247 21.1728 18.925 20.885L14.8197 14.969C14.5275 14.5479 14.2655 14.1097 14.0349 13.6575H6.96512C6.73453 14.1097 6.47258 14.5479 6.18029 14.969L2.07494 20.885C1.87525 21.1728 2.05933 21.5655 2.41215 21.6044ZM7.7406 11.7065H13.2594C12.9623 10.6915 12.8092 9.63546 12.8092 8.56784V1.95108L8.19083 1.95109V8.56784C8.19083 9.63546 8.0377 10.6915 7.7406 11.7065Z" fill="black"/>
</svg>
