<svg width="16" height="19" viewBox="0 0 16 19" fill="none" xmlns="http://www.w3.org/2000/svg">
<path d="M8.91281 11.75C8.36051 11.75 7.91281 12.1977 7.91281 12.75C7.91281 13.3023 8.36051 13.75 8.91281 13.75C9.46511 13.75 9.91281 13.3023 9.91281 12.75C9.91281 12.1977 9.46511 11.75 8.91281 11.75Z" fill="white"/>
<path d="M5.91281 13.75C5.36052 13.75 4.91281 14.1977 4.91281 14.75C4.91281 15.3023 5.36052 15.75 5.91281 15.75C6.46511 15.75 6.91281 15.3023 6.91281 14.75C6.91281 14.1977 6.46511 13.75 5.91281 13.75Z" fill="white"/>
<path fill-rule="evenodd" clip-rule="evenodd" d="M10.406 1.00136e-05L10.403 0H5.42261L5.41965 1.00136e-05H4.41281C3.9986 1.00136e-05 3.66281 0.33579 3.66281 0.75001C3.66281 1.16422 3.9986 1.50001 4.41281 1.50001H4.67261V6.58701C4.67261 8.0414 4.2352 9.4621 3.41721 10.6647L0.323418 15.2129C-0.462232 16.3679 0.261998 17.944 1.65011 18.1002C5.81211 18.5684 10.0135 18.5684 14.1755 18.1002C15.5636 17.944 16.2878 16.3679 15.5022 15.2129L12.4084 10.6647C11.5904 9.4621 11.153 8.0414 11.153 6.58701V1.50001H11.4128C11.827 1.50001 12.1628 1.16422 12.1628 0.75001C12.1628 0.33579 11.827 1.00136e-05 11.4128 1.00136e-05H10.406ZM1.8178 16.6096C5.86836 17.0653 9.95721 17.0653 14.0078 16.6096C14.2737 16.5797 14.4124 16.2778 14.2619 16.0565L11.1681 11.5083C10.9479 11.1845 10.7505 10.8476 10.5767 10.5H5.24892C5.07514 10.8476 4.87774 11.1845 4.65747 11.5083L1.56368 16.0565C1.41319 16.2778 1.55191 16.5797 1.8178 16.6096ZM5.83332 9H9.99231C9.76841 8.2197 9.65301 7.4078 9.65301 6.58701V1.5L6.17261 1.50001V6.58701C6.17261 7.4078 6.05721 8.2197 5.83332 9Z" fill="white"/>
</svg>
