<svg width="20" height="23" viewBox="0 0 20 23" fill="none" xmlns="http://www.w3.org/2000/svg">
<path fill-rule="evenodd" clip-rule="evenodd" d="M4.51613 5.75709C4.51613 2.57754 6.97134 0 10 0C13.0286 0 15.4839 2.57754 15.4839 5.75709C15.4839 8.93665 13.0286 11.5142 10 11.5142C6.97134 11.5142 4.51613 8.93665 4.51613 5.75709ZM10 2.03192C8.04026 2.03192 6.45161 3.69974 6.45161 5.75709C6.45161 7.81445 8.04026 9.48227 10 9.48227C11.9597 9.48227 13.5484 7.81445 13.5484 5.75709C13.5484 3.69974 11.9597 2.03192 10 2.03192Z" fill="black"/>
<path fill-rule="evenodd" clip-rule="evenodd" d="M4.83871 15.578C3.2353 15.578 1.93548 16.9427 1.93548 18.6259V20.2356C1.93548 20.2601 1.9524 20.281 1.97545 20.2849C7.28996 21.1959 12.7101 21.1959 18.0245 20.2849C18.0476 20.281 18.0645 20.2601 18.0645 20.2356V18.6259C18.0645 16.9427 16.7646 15.578 15.1613 15.578H14.7214C14.6875 15.578 14.6537 15.5837 14.6213 15.5947L13.5045 15.9776C11.2274 16.7582 8.77264 16.7582 6.49546 15.9776L5.37867 15.5947C5.34635 15.5837 5.31254 15.578 5.27854 15.578H4.83871ZM0 18.6259C0 15.8204 2.16636 13.5461 4.83871 13.5461H5.27854C5.51659 13.5461 5.75315 13.5857 5.97945 13.6631L7.09624 14.0461C8.9831 14.6928 11.0169 14.6928 12.9037 14.0461L14.0205 13.6631C14.2468 13.5857 14.4834 13.5461 14.7214 13.5461H15.1613C17.8337 13.5461 20 15.8204 20 18.6259V20.2356C20 21.2559 19.2956 22.1258 18.3364 22.2903C12.8154 23.2366 7.18464 23.2366 1.66357 22.2903C0.704361 22.1258 0 21.2559 0 20.2356V18.6259Z" fill="black"/>
</svg>
