<svg width="48" height="48" viewBox="0 0 48 48" fill="none" xmlns="http://www.w3.org/2000/svg">
<rect x="0.5" y="-0.5" width="47" height="47" rx="23.5" transform="matrix(1 0 0 -1 0 47)" fill="white" stroke="black"/>
<path d="M34.7071 23.2929C35.0976 23.6834 35.0976 24.3166 34.7071 24.7071L28.3431 31.0711C27.9526 31.4616 27.3195 31.4616 26.9289 31.0711C26.5384 30.6805 26.5384 30.0474 26.9289 29.6569L32.5858 24L26.9289 18.3431C26.5384 17.9526 26.5384 17.3195 26.9289 16.9289C27.3195 16.5384 27.9526 16.5384 28.3431 16.9289L34.7071 23.2929ZM14 23L34 23V25L14 25V23Z" fill="black"/>
</svg>
